<svg viewBox="0 0 14 14" xmlns="http://www.w3.org/2000/svg" xmlns:xlink="http://www.w3.org/1999/xlink" width="14.000000" height="14.000000" fill="none" customFrame="#000000">
	<g id="bag">
		<path id="Vector" d="M11.2233 3.25507L10.99 3.25507L9.01829 1.28341C8.86079 1.12591 8.60413 1.12591 8.44079 1.28341C8.28329 1.44091 8.28329 1.69757 8.44079 1.86091L9.83496 3.25507L4.16496 3.25507L5.55913 1.86091C5.71663 1.70341 5.71663 1.44674 5.55913 1.28341C5.40163 1.12591 5.14496 1.12591 4.98163 1.28341L3.01579 3.25507L2.78246 3.25507C2.25746 3.25507 1.16663 3.25507 1.16663 4.74841C1.16663 5.31424 1.28329 5.68757 1.52829 5.93257C1.66829 6.07841 1.83746 6.15424 2.01829 6.19507C2.18746 6.23591 2.36829 6.24174 2.54329 6.24174L11.4566 6.24174C11.6375 6.24174 11.8066 6.23007 11.97 6.19507C12.46 6.07841 12.8333 5.72841 12.8333 4.74841C12.8333 3.25507 11.7425 3.25507 11.2233 3.25507Z" fill="rgb(31.3615,164.139,108.372)" fill-rule="nonzero" />
		<path id="Vector" d="M11.1126 7L2.84096 7C2.4793 7 2.20513 7.32083 2.26346 7.67667L2.75346 10.675C2.9168 11.6783 3.3543 12.8333 5.2968 12.8333L8.5693 12.8333C10.5351 12.8333 10.8851 11.8475 11.0951 10.745L11.6843 7.69417C11.7543 7.3325 11.4801 7 11.1126 7ZM6.1893 10.7625C6.1893 10.99 6.00846 11.1708 5.7868 11.1708C5.5593 11.1708 5.37846 10.99 5.37846 10.7625L5.37846 8.8375C5.37846 8.61583 5.5593 8.42917 5.7868 8.42917C6.00846 8.42917 6.1893 8.61583 6.1893 8.8375L6.1893 10.7625ZM8.68596 10.7625C8.68596 10.99 8.50513 11.1708 8.27763 11.1708C8.05596 11.1708 7.8693 10.99 7.8693 10.7625L7.8693 8.8375C7.8693 8.61583 8.05596 8.42917 8.27763 8.42917C8.50513 8.42917 8.68596 8.61583 8.68596 8.8375L8.68596 10.7625Z" fill="rgb(31.3615,164.139,108.372)" fill-rule="nonzero" />
		<path id="Vector" opacity="0" transform="matrix(-1,-1.22465e-16,1.22465e-16,-1,14,14)" />
	</g>
</svg>
