<svg viewBox="0 0 14 14" xmlns="http://www.w3.org/2000/svg" xmlns:xlink="http://www.w3.org/1999/xlink" width="14.000000" height="14.000000" fill="none" customFrame="#000000">
	<g id="house">
		<path id="Vector" opacity="0" />
		<path id="Vector" d="M12.8333 12.3958L12.25 12.3958L12.25 5.82167C12.25 5.46 12.0866 5.12167 11.8008 4.9L11.0833 4.34L11.0716 2.91084C11.0716 2.59 10.8091 2.33334 10.4883 2.33334L8.49913 2.33334L7.71746 1.72667C7.29746 1.39417 6.70246 1.39417 6.28246 1.72667L2.19913 4.9C1.91329 5.12167 1.74996 5.46 1.74996 5.81584L1.72079 12.3958L1.16663 12.3958C0.927459 12.3958 0.729126 12.5942 0.729126 12.8333C0.729126 13.0725 0.927459 13.2708 1.16663 13.2708L12.8333 13.2708C13.0725 13.2708 13.2708 13.0725 13.2708 12.8333C13.2708 12.5942 13.0725 12.3958 12.8333 12.3958ZM3.79163 7.4375L3.79163 6.5625C3.79163 6.24167 4.05413 5.97917 4.37496 5.97917L5.54163 5.97917C5.86246 5.97917 6.12496 6.24167 6.12496 6.5625L6.12496 7.4375C6.12496 7.75834 5.86246 8.02084 5.54163 8.02084L4.37496 8.02084C4.05413 8.02084 3.79163 7.75834 3.79163 7.4375ZM8.45829 12.3958L5.54163 12.3958L5.54163 10.7917C5.54163 10.3075 5.93246 9.91667 6.41663 9.91667L7.58329 9.91667C8.06746 9.91667 8.45829 10.3075 8.45829 10.7917L8.45829 12.3958ZM10.2083 7.4375C10.2083 7.75834 9.94579 8.02084 9.62496 8.02084L8.45829 8.02084C8.13746 8.02084 7.87496 7.75834 7.87496 7.4375L7.87496 6.5625C7.87496 6.24167 8.13746 5.97917 8.45829 5.97917L9.62496 5.97917C9.94579 5.97917 10.2083 6.24167 10.2083 6.5625L10.2083 7.4375Z" fill="rgb(0,0,0)" fill-rule="nonzero" />
	</g>
</svg>
