<svg viewBox="0 0 12 12" xmlns="http://www.w3.org/2000/svg" xmlns:xlink="http://www.w3.org/1999/xlink" width="12.000000" height="12.000000" fill="none" customFrame="#000000">
	<rect id="Frame 1511838849" width="12.000000" height="12.000000" x="0.000000" y="0.000000" />
	<g id="vuesax/bold/edit-2">
		<g id="edit-2">
			<path id="Vector" d="M10.5 11L1.5 11C1.295 11 1.125 10.83 1.125 10.625C1.125 10.42 1.295 10.25 1.5 10.25L10.5 10.25C10.705 10.25 10.875 10.42 10.875 10.625C10.875 10.83 10.705 11 10.5 11Z" fill="rgb(153,153,153)" fill-rule="nonzero" />
			<path id="Vector" d="M9.50998 1.74008C8.53998 0.770079 7.58998 0.745079 6.59498 1.74008L5.98998 2.34508C5.93998 2.39508 5.91998 2.47508 5.93998 2.54508C6.31998 3.87008 7.37998 4.93008 8.70498 5.31008C8.72498 5.31508 8.74498 5.32008 8.76498 5.32008C8.81998 5.32008 8.86998 5.30008 8.90998 5.26008L9.50998 4.65508C10.005 4.16508 10.245 3.69008 10.245 3.21008C10.25 2.71508 10.01 2.23508 9.50998 1.74008Z" fill="rgb(153,153,153)" fill-rule="nonzero" />
			<path id="Vector" d="M7.80498 5.7649C7.65998 5.6949 7.51998 5.6249 7.38498 5.5449C7.27498 5.4799 7.16998 5.4099 7.06498 5.3349C6.97998 5.2799 6.87998 5.1999 6.78498 5.1199C6.77498 5.1149 6.73998 5.0849 6.69998 5.0449C6.53498 4.9049 6.34998 4.7249 6.18498 4.5249C6.16998 4.5149 6.14498 4.4799 6.10998 4.4349C6.05998 4.3749 5.97498 4.2749 5.89998 4.1599C5.83998 4.0849 5.76998 3.9749 5.70498 3.8649C5.62498 3.7299 5.55498 3.5949 5.48498 3.4549C5.3932 3.25823 5.13507 3.19981 4.98161 3.35327L2.16998 6.1649C2.10498 6.2299 2.04498 6.3549 2.02998 6.4399L1.75998 8.3549C1.70998 8.6949 1.80498 9.0149 2.01498 9.2299C2.19498 9.4049 2.44498 9.4999 2.71498 9.4999C2.77498 9.4999 2.83498 9.4949 2.89498 9.4849L4.81498 9.2149C4.90498 9.1999 5.02998 9.1399 5.08998 9.0749L7.90624 6.25863C8.05664 6.10824 8.00013 5.84947 7.80498 5.7649Z" fill="rgb(153,153,153)" fill-rule="nonzero" />
			<path id="Vector" opacity="0" transform="matrix(-1,-1.22465e-16,1.22465e-16,-1,12,12)" />
		</g>
	</g>
</svg>
