<svg viewBox="0 0 14 14" xmlns="http://www.w3.org/2000/svg" xmlns:xlink="http://www.w3.org/1999/xlink" width="14.000000" height="14.000000" fill="none" customFrame="#000000">
	<g id="vuesax/bold/teacher">
		<path id="Vector" d="M9.81761 9.12342C10.2084 8.86676 10.7218 9.14676 10.7218 9.61342L10.7218 10.3659C10.7218 11.1068 10.1443 11.9001 9.45011 12.1334L7.58928 12.7518C7.26261 12.8626 6.73178 12.8626 6.41094 12.7518L4.55011 12.1334C3.85011 11.9001 3.27844 11.1068 3.27844 10.3659L3.27844 9.60759C3.27844 9.14676 3.79178 8.86676 4.17678 9.11759L5.37844 9.89926C5.83928 10.2084 6.42261 10.3601 7.00594 10.3601C7.58928 10.3601 8.17261 10.2084 8.63344 9.89926L9.81761 9.12342Z" fill="rgb(0,0,0)" fill-rule="nonzero" />
		<path id="Vector" d="M11.655 3.76841L8.16084 1.47591C7.53084 1.06174 6.49251 1.06174 5.86251 1.47591L2.35084 3.76841C1.22501 4.49757 1.22501 6.14841 2.35084 6.88341L3.28418 7.49007L5.86251 9.17007C6.49251 9.58424 7.53084 9.58424 8.16084 9.17007L10.7217 7.49007L11.5208 6.96507L11.5208 8.75007C11.5208 8.98924 11.7192 9.18757 11.9583 9.18757C12.1975 9.18757 12.3958 8.98924 12.3958 8.75007L12.3958 5.88007C12.6292 5.12757 12.39 4.25257 11.655 3.76841Z" fill="rgb(0,0,0)" fill-rule="nonzero" />
		<path id="Vector" opacity="0" transform="matrix(-1,-1.22465e-16,1.22465e-16,-1,14,14)" />
	</g>
</svg>
